<svg id="svg" version="1.1" xmlns="http://www.w3.org/2000/svg" xmlns:xlink="http://www.w3.org/1999/xlink" width="400" height="400" viewBox="0, 0, 400,400"><g id="svgg"><path id="path0" d="M0.000 200.000 L 0.000 400.000 200.000 400.000 L 400.000 400.000 400.000 200.000 L 400.000 0.000 200.000 0.000 L 0.000 0.000 0.000 200.000 M212.600 81.020 C 216.919 81.760,217.447 81.907,218.098 82.547 C 218.579 83.022,225.115 84.526,228.733 84.995 C 230.857 85.271,234.225 86.925,234.783 87.967 C 235.009 88.390,235.870 88.951,236.697 89.213 C 239.996 90.260,244.114 92.534,244.756 93.662 C 245.110 94.285,245.598 94.796,245.840 94.797 C 247.042 94.804,251.335 97.892,252.609 99.666 C 253.373 100.730,254.286 101.600,254.638 101.600 C 255.817 101.600,257.668 103.293,258.429 105.068 C 258.916 106.203,259.638 107.071,260.464 107.514 C 262.254 108.473,263.281 109.622,264.425 111.948 C 264.990 113.096,266.006 114.354,266.803 114.890 C 267.568 115.406,268.257 116.153,268.333 116.550 C 268.410 116.946,268.887 117.882,269.394 118.629 C 269.901 119.376,270.643 120.779,271.044 121.748 C 271.444 122.717,272.270 123.844,272.878 124.252 C 273.486 124.661,274.142 125.447,274.336 125.998 C 274.703 127.042,276.571 133.134,277.005 134.700 C 277.142 135.195,277.403 135.600,277.585 135.600 C 278.954 135.600,281.083 142.836,281.605 149.261 C 281.803 151.698,282.174 155.492,282.430 157.692 C 282.962 162.271,282.731 177.029,282.041 182.500 C 281.799 184.425,281.432 187.500,281.227 189.334 C 280.803 193.117,279.668 196.693,278.302 198.542 C 277.044 200.246,276.469 201.618,275.396 205.485 C 274.425 208.984,273.065 211.600,272.219 211.600 C 271.935 211.600,271.017 213.141,270.177 215.026 C 269.085 217.476,268.229 218.785,267.170 219.623 C 266.356 220.268,265.327 221.562,264.883 222.498 C 264.439 223.434,263.519 224.729,262.838 225.375 C 262.157 226.021,261.598 226.741,261.595 226.975 C 261.592 227.209,260.954 227.812,260.176 228.316 C 259.399 228.820,258.652 229.540,258.517 229.916 C 258.252 230.657,254.146 234.800,253.678 234.800 C 253.520 234.800,252.944 235.205,252.396 235.700 C 251.848 236.195,250.726 237.050,249.903 237.600 C 249.079 238.150,248.404 238.810,248.403 239.067 C 248.399 239.735,246.009 241.122,243.659 241.820 C 242.318 242.218,241.563 242.685,241.393 243.223 C 240.892 244.802,233.097 248.400,230.178 248.400 C 229.613 248.400,228.966 248.786,228.604 249.338 C 227.545 250.954,222.675 252.617,215.371 253.858 C 212.164 254.402,211.426 254.625,212.600 254.695 C 213.480 254.748,216.990 255.064,220.400 255.397 C 223.810 255.730,229.210 256.181,232.400 256.399 C 235.590 256.617,239.730 257.087,241.600 257.444 C 243.470 257.800,245.622 258.185,246.381 258.299 C 247.141 258.413,248.526 258.933,249.460 259.454 C 251.235 260.446,255.918 261.600,258.162 261.600 C 261.007 261.600,268.210 263.928,270.000 265.425 C 270.672 265.988,278.692 268.400,279.889 268.400 C 280.312 268.400,281.815 269.208,283.229 270.196 C 284.643 271.183,285.980 271.994,286.200 271.998 C 286.420 272.002,287.058 272.244,287.618 272.536 C 288.177 272.828,289.167 273.175,289.818 273.307 C 291.863 273.723,294.628 275.135,296.178 276.555 C 297.111 277.409,298.707 278.256,300.427 278.809 C 302.343 279.425,303.754 280.212,305.057 281.392 C 306.804 282.973,307.730 283.536,311.745 285.460 C 312.594 285.867,313.894 286.932,314.634 287.828 C 315.373 288.723,317.018 289.983,318.289 290.628 C 320.812 291.908,321.568 292.617,321.587 293.722 C 321.595 294.189,322.240 294.728,323.405 295.244 C 325.448 296.147,328.400 298.844,328.400 299.807 C 328.400 300.176,329.140 300.772,330.159 301.223 C 331.416 301.779,332.280 302.566,333.191 303.986 C 333.892 305.078,335.327 306.591,336.381 307.348 C 337.855 308.407,338.358 309.052,338.563 310.145 C 338.725 311.009,339.255 311.888,339.915 312.388 C 342.326 314.218,343.170 315.222,344.339 317.654 C 345.029 319.090,346.052 320.522,346.684 320.938 C 347.757 321.644,348.878 323.644,350.857 328.381 C 351.358 329.580,352.277 331.020,352.898 331.581 C 353.805 332.398,354.346 333.708,355.629 338.185 C 356.509 341.257,357.463 344.047,357.748 344.385 C 361.517 348.861,362.710 363.052,359.529 365.571 C 357.502 367.175,359.805 367.152,201.600 367.170 L 48.600 367.187 47.008 366.285 C 44.844 365.060,44.411 364.008,44.417 360.000 C 44.429 351.843,45.477 346.056,47.480 343.087 C 48.310 341.856,49.451 339.195,50.262 336.600 C 52.087 330.763,52.164 330.598,53.579 329.552 C 54.250 329.056,54.800 328.383,54.800 328.057 C 54.800 327.416,57.130 322.138,57.794 321.272 C 58.017 320.981,58.538 320.441,58.950 320.072 C 61.105 318.142,61.600 317.475,61.600 316.501 C 61.600 315.731,62.250 314.807,63.968 313.137 C 65.270 311.871,66.438 310.512,66.565 310.117 C 66.756 309.518,68.584 307.431,70.346 305.800 C 70.584 305.580,71.855 304.320,73.171 303.000 C 74.487 301.680,76.198 300.060,76.974 299.400 C 77.749 298.740,78.388 297.984,78.392 297.719 C 78.401 297.160,81.694 294.801,82.472 294.797 C 82.762 294.795,83.387 294.115,83.861 293.286 C 84.474 292.211,85.510 291.346,87.469 290.272 C 89.001 289.432,90.567 288.227,91.008 287.548 C 91.539 286.733,92.857 285.832,95.000 284.821 C 96.760 283.990,98.427 282.926,98.703 282.455 C 98.980 281.985,99.447 281.600,99.741 281.600 C 100.035 281.600,100.619 281.217,101.038 280.748 C 101.947 279.732,104.885 278.400,106.218 278.400 C 106.794 278.400,107.782 277.781,108.722 276.832 C 110.303 275.235,111.827 274.438,115.400 273.339 C 118.277 272.454,119.998 271.574,121.653 270.143 C 122.583 269.339,123.880 268.724,125.253 268.434 C 128.593 267.731,134.576 265.929,134.820 265.552 C 135.692 264.204,143.642 261.609,146.917 261.603 C 149.322 261.598,154.281 260.443,155.838 259.525 C 158.140 258.166,165.128 256.858,172.600 256.388 C 176.340 256.152,182.010 255.698,185.200 255.379 C 188.390 255.060,192.170 254.779,193.600 254.754 L 196.200 254.709 192.693 254.162 C 184.809 252.931,179.919 251.481,178.055 249.821 C 177.035 248.913,175.764 248.321,173.800 247.840 C 169.802 246.862,165.602 244.857,165.170 243.721 C 164.817 242.792,163.152 241.850,161.096 241.416 C 160.488 241.287,159.228 240.370,158.296 239.376 C 157.363 238.383,155.520 236.863,154.200 236.000 C 152.880 235.136,150.720 233.240,149.400 231.786 C 148.080 230.332,145.875 227.975,144.501 226.547 C 143.101 225.093,141.628 223.083,141.151 221.976 C 140.684 220.889,140.189 220.000,140.051 219.999 C 139.128 219.996,137.045 217.385,135.903 214.800 C 135.173 213.150,134.012 211.213,133.323 210.494 C 132.391 209.525,131.639 207.878,130.400 204.094 C 129.482 201.293,128.485 198.725,128.184 198.389 C 127.075 197.151,125.620 193.317,125.226 190.598 C 123.207 176.662,122.791 167.233,123.781 157.800 C 124.150 154.280,124.611 149.510,124.806 147.200 C 125.204 142.474,126.021 139.657,127.590 137.600 C 128.811 135.998,129.079 135.342,130.828 129.663 C 131.910 126.150,132.283 125.416,133.306 124.794 C 134.141 124.287,134.738 123.416,135.252 121.956 C 135.660 120.797,136.452 119.156,137.012 118.310 C 137.573 117.463,138.200 116.327,138.406 115.785 C 138.622 115.216,139.101 114.800,139.538 114.800 C 140.071 114.800,140.699 114.009,141.648 112.145 C 142.653 110.171,143.537 109.092,145.094 107.937 C 146.442 106.937,147.465 105.774,147.968 104.671 C 148.595 103.293,149.188 102.734,150.990 101.823 C 152.223 101.199,153.427 100.309,153.666 99.844 C 154.198 98.810,156.301 96.800,156.851 96.800 C 157.072 96.800,157.843 96.350,158.564 95.800 C 159.286 95.250,160.071 94.800,160.311 94.800 C 160.550 94.800,161.103 94.298,161.541 93.683 C 162.323 92.584,164.299 91.448,168.969 89.413 C 170.272 88.846,171.572 88.046,171.859 87.637 C 172.447 86.798,177.134 84.799,178.504 84.802 C 180.218 84.807,187.404 83.063,188.096 82.475 C 190.240 80.652,205.250 79.760,212.600 81.020 " stroke="none" fill="#e4e4e4" fill-rule="evenodd"></path><path id="path1" d="M194.600 87.427 C 193.940 87.514,191.006 87.797,188.080 88.055 C 183.283 88.479,182.688 88.617,182.029 89.455 C 180.908 90.879,177.853 92.217,172.900 93.452 C 169.877 94.205,168.400 94.755,168.400 95.127 C 168.400 96.285,165.751 98.400,164.299 98.400 C 162.952 98.400,160.400 100.226,160.400 101.191 C 160.400 101.603,156.248 104.800,155.712 104.800 C 155.535 104.800,155.032 105.287,154.595 105.883 C 153.848 106.900,153.173 107.599,151.929 108.644 C 150.839 109.559,148.702 112.205,148.390 113.026 C 148.212 113.494,147.435 114.177,146.663 114.543 C 145.644 115.027,145.126 115.620,144.775 116.705 C 143.775 119.797,142.870 121.115,141.418 121.594 C 140.122 122.022,139.955 122.271,139.184 124.928 C 137.438 130.951,137.175 131.543,135.720 132.710 C 134.227 133.907,134.017 134.644,131.649 147.000 C 131.480 147.880,130.995 149.200,130.571 149.933 C 128.247 153.949,128.401 152.697,128.401 167.517 C 128.400 180.026,128.462 181.300,129.100 181.991 C 130.437 183.437,132.173 189.257,133.213 195.783 C 133.840 199.720,134.455 201.139,136.446 203.249 C 137.975 204.869,138.400 205.607,138.400 206.645 C 138.400 208.450,139.834 211.955,141.024 213.058 C 141.561 213.555,142.000 214.150,142.000 214.381 C 142.000 214.611,142.273 214.800,142.606 214.800 C 143.449 214.800,144.797 217.150,144.799 218.624 C 144.800 220.244,145.498 221.076,147.200 221.489 C 148.387 221.776,148.784 222.191,149.810 224.214 C 150.852 226.267,151.306 226.733,153.065 227.556 C 154.751 228.344,155.197 228.779,155.613 230.038 C 155.975 231.138,156.491 231.737,157.458 232.182 C 158.196 232.522,159.419 233.085,160.175 233.434 C 161.066 233.845,161.833 234.641,162.357 235.699 C 163.176 237.355,164.970 238.380,167.076 238.394 C 167.558 238.397,168.051 238.560,168.172 238.755 C 168.293 238.950,168.987 239.221,169.716 239.358 C 170.949 239.589,173.713 241.749,174.051 242.745 C 174.216 243.232,181.059 244.784,183.085 244.794 C 184.699 244.802,190.241 246.095,193.400 247.200 C 194.720 247.662,196.430 248.233,197.200 248.469 C 199.350 249.128,206.854 248.642,210.600 247.602 C 218.196 245.492,217.570 245.623,227.165 244.135 C 229.676 243.745,231.926 243.188,232.165 242.896 C 233.511 241.256,235.167 239.948,236.400 239.552 C 237.170 239.305,237.971 238.945,238.180 238.752 C 238.389 238.558,238.908 238.400,239.334 238.400 C 241.438 238.400,243.002 237.509,243.800 235.857 C 244.576 234.249,244.906 234.010,248.800 232.230 C 249.350 231.978,250.114 231.109,250.498 230.298 C 251.159 228.900,252.902 227.600,254.115 227.600 C 254.420 227.600,255.153 226.613,255.744 225.408 C 256.993 222.856,258.202 221.600,259.408 221.600 C 260.391 221.600,261.022 220.565,261.557 218.071 C 261.936 216.302,262.961 214.800,263.787 214.800 C 264.819 214.800,267.422 209.640,268.191 206.069 C 268.382 205.178,268.966 204.389,269.954 203.686 C 271.530 202.564,271.734 201.968,273.406 193.600 C 274.429 188.481,275.090 186.441,276.380 184.432 C 278.536 181.071,279.234 152.432,277.177 151.672 C 275.829 151.173,274.218 146.441,272.863 139.000 C 272.015 134.341,271.433 132.400,270.885 132.400 C 269.952 132.400,268.810 130.525,267.806 127.342 C 266.096 121.924,265.951 121.600,265.240 121.600 C 263.927 121.600,262.853 120.355,261.808 117.621 C 261.180 115.977,260.457 114.745,260.044 114.614 C 259.402 114.410,257.138 111.890,253.600 107.441 C 252.830 106.473,251.641 105.347,250.958 104.940 C 248.004 103.180,246.429 101.965,245.611 100.816 C 244.619 99.422,242.883 98.400,241.509 98.400 C 240.206 98.400,238.883 97.373,238.255 95.873 C 237.697 94.541,236.732 94.168,227.826 91.839 C 226.224 91.420,224.988 90.776,224.026 89.859 C 222.692 88.589,222.328 88.469,218.400 88.011 C 214.311 87.534,197.002 87.109,194.600 87.427 M186.200 259.974 C 183.780 260.098,181.433 260.411,180.985 260.669 C 179.350 261.609,169.643 263.573,163.600 264.186 C 148.843 265.684,150.088 265.449,148.623 267.003 C 147.820 267.855,146.926 268.400,146.333 268.400 C 145.798 268.400,145.189 268.569,144.980 268.775 C 144.771 268.981,142.620 269.521,140.200 269.975 C 132.405 271.439,131.935 271.576,130.447 272.819 C 128.172 274.720,128.057 274.800,127.627 274.800 C 124.868 274.800,117.661 277.523,116.200 279.117 C 114.792 280.654,114.217 280.958,111.400 281.655 C 109.640 282.091,107.795 282.548,107.299 282.670 C 106.801 282.794,105.999 283.605,105.504 284.486 C 104.526 286.226,103.724 286.741,100.389 287.771 C 98.562 288.335,98.040 288.709,97.389 289.922 C 96.955 290.730,96.240 291.457,95.800 291.538 C 95.360 291.620,94.754 291.892,94.453 292.143 C 94.152 292.394,92.712 293.232,91.253 294.005 C 89.419 294.977,88.562 295.674,88.478 296.264 C 88.310 297.435,87.373 298.153,84.862 299.035 C 82.769 299.770,81.600 301.029,81.600 302.551 C 81.600 303.431,79.649 304.800,78.395 304.800 C 77.114 304.800,76.591 305.336,76.232 307.019 C 75.889 308.626,74.228 310.374,72.767 310.667 C 71.797 310.861,71.478 311.240,70.899 312.890 C 70.258 314.714,68.879 316.348,66.580 318.008 C 66.129 318.334,65.522 319.230,65.232 320.000 C 64.087 323.037,62.583 325.711,61.616 326.429 C 59.632 327.901,59.321 328.439,58.799 331.303 C 58.154 334.836,57.217 336.816,55.584 338.093 C 54.274 339.119,54.147 339.558,52.199 349.800 C 51.680 352.524,51.175 353.906,50.121 355.481 C 48.788 357.474,48.669 358.400,49.748 358.400 C 50.024 358.400,50.647 358.771,51.134 359.224 C 52.694 360.678,54.372 361.123,57.000 360.780 C 61.937 360.137,345.496 360.336,348.600 360.986 L 351.399 361.571 353.099 359.902 C 355.002 358.035,355.201 356.986,354.199 354.109 C 353.875 353.179,353.425 351.109,353.198 349.509 C 352.145 342.070,351.580 340.272,349.930 339.097 C 349.035 338.460,348.400 337.678,348.400 337.212 C 348.400 336.775,347.971 335.108,347.447 333.508 C 346.922 331.909,346.384 330.150,346.251 329.600 C 346.107 329.003,345.484 328.345,344.705 327.967 C 343.158 327.217,341.600 325.077,341.600 323.703 C 341.600 322.409,340.494 320.586,339.332 319.964 C 338.820 319.689,338.400 319.240,338.400 318.966 C 338.400 318.691,338.250 318.407,338.066 318.333 C 337.278 318.019,334.800 313.820,334.800 312.800 C 334.800 311.852,334.599 311.651,333.431 311.432 C 331.814 311.129,329.681 308.905,329.332 307.159 C 329.058 305.788,328.753 305.544,326.613 304.984 C 325.251 304.627,324.864 304.259,323.889 302.393 C 322.920 300.538,322.477 300.114,320.877 299.508 C 319.702 299.064,318.134 297.927,316.685 296.470 C 315.265 295.041,313.218 293.548,311.388 292.607 C 308.965 291.361,308.315 290.822,307.923 289.736 C 307.657 289.001,307.233 288.400,306.982 288.400 C 304.710 288.400,298.400 284.719,298.400 283.394 C 298.400 282.896,295.030 281.595,293.749 281.598 C 292.250 281.602,289.974 280.405,288.466 278.821 C 286.934 277.212,285.626 276.683,280.000 275.394 C 276.360 274.560,275.131 273.966,274.461 272.714 C 273.876 271.620,272.507 271.186,266.600 270.222 C 261.628 269.411,257.263 267.922,256.164 266.662 C 255.224 265.585,251.734 264.800,247.883 264.800 C 242.542 264.800,228.377 262.488,224.000 260.902 C 221.020 259.823,199.465 259.293,186.200 259.974 " stroke="none" fill="#acb4b4" fill-rule="evenodd"></path><path id="path2" d="M190.200 85.596 C 181.548 87.001,179.919 87.500,174.800 90.303 C 173.590 90.966,171.700 91.717,170.600 91.973 C 169.500 92.229,167.790 93.059,166.800 93.817 C 165.810 94.576,164.280 95.674,163.400 96.258 C 162.520 96.842,161.710 97.452,161.600 97.615 C 161.490 97.777,160.770 98.179,160.000 98.508 C 159.230 98.838,157.520 100.182,156.200 101.496 C 154.880 102.810,153.214 104.186,152.498 104.554 C 151.782 104.922,150.756 105.893,150.218 106.711 C 148.829 108.826,147.986 109.743,146.491 110.769 C 145.772 111.263,144.928 112.277,144.616 113.024 C 144.304 113.770,143.707 114.748,143.288 115.197 C 142.870 115.646,142.274 116.505,141.964 117.107 C 141.654 117.708,141.006 118.519,140.524 118.910 C 140.043 119.300,139.178 120.650,138.602 121.910 C 137.084 125.232,135.976 127.289,135.215 128.200 C 134.089 129.548,132.079 134.467,131.625 136.988 C 131.388 138.301,130.583 140.731,129.834 142.388 C 125.510 151.964,125.115 186.868,129.274 191.922 C 130.128 192.961,131.120 195.349,131.407 197.060 C 131.785 199.307,133.223 203.705,133.808 204.400 C 135.034 205.857,138.400 212.257,138.400 213.130 C 138.400 213.721,139.019 214.713,140.000 215.694 C 140.880 216.574,141.600 217.354,141.600 217.427 C 141.600 217.659,144.149 221.377,144.686 221.929 C 144.968 222.219,145.204 222.579,145.209 222.729 C 145.215 222.878,145.935 223.530,146.809 224.177 C 147.684 224.824,148.400 225.570,148.400 225.834 C 148.400 226.666,155.023 232.973,157.613 234.608 C 158.469 235.149,159.982 236.403,160.975 237.396 C 161.967 238.388,163.010 239.200,163.293 239.200 C 164.009 239.200,167.314 240.996,170.396 243.061 C 171.823 244.017,173.389 244.800,173.875 244.800 C 175.098 244.800,180.564 246.563,183.644 247.951 C 192.823 252.087,213.971 252.217,222.009 248.186 C 224.284 247.045,228.270 245.717,231.447 245.040 C 233.171 244.674,234.887 243.873,237.247 242.333 C 239.091 241.130,241.466 239.747,242.524 239.260 C 243.582 238.772,245.005 237.739,245.686 236.963 C 246.367 236.188,247.598 235.209,248.422 234.789 C 249.785 234.094,258.400 226.151,258.400 225.590 C 258.400 225.460,259.259 224.461,260.309 223.372 C 261.359 222.283,262.520 220.763,262.889 219.996 C 263.259 219.228,264.475 217.610,265.592 216.400 C 266.927 214.953,267.820 213.536,268.201 212.262 C 268.519 211.196,269.371 209.486,270.093 208.462 C 272.136 205.568,273.514 202.507,274.443 198.800 C 274.912 196.930,275.905 194.218,276.649 192.773 C 277.578 190.967,278.120 189.216,278.380 187.173 C 278.588 185.538,278.988 182.850,279.269 181.200 C 279.946 177.224,279.927 158.222,279.241 153.600 C 278.964 151.730,278.605 149.120,278.445 147.800 C 278.264 146.307,277.586 144.250,276.653 142.356 C 275.828 140.683,274.908 138.142,274.609 136.710 C 273.980 133.704,271.888 128.568,270.817 127.400 C 269.691 126.171,268.403 123.880,268.401 123.101 C 268.400 122.302,265.711 118.400,265.162 118.400 C 264.963 118.400,264.800 118.200,264.800 117.956 C 264.800 117.711,264.080 116.651,263.200 115.600 C 262.320 114.549,261.600 113.398,261.600 113.042 C 261.600 112.686,261.120 111.991,260.532 111.497 C 258.524 109.809,256.337 107.439,255.762 106.326 C 255.445 105.714,254.679 104.951,254.060 104.631 C 253.440 104.310,251.688 102.865,250.166 101.419 C 248.645 99.973,246.960 98.673,246.423 98.532 C 245.477 98.283,242.227 96.240,241.404 95.377 C 240.184 94.099,237.623 92.599,235.569 91.960 C 234.285 91.560,232.102 90.614,230.717 89.857 C 222.605 85.423,203.581 83.423,190.200 85.596 M218.400 88.011 C 222.328 88.469,222.692 88.589,224.026 89.859 C 224.988 90.776,226.224 91.420,227.826 91.839 C 236.732 94.168,237.697 94.541,238.255 95.873 C 238.883 97.373,240.206 98.400,241.509 98.400 C 242.883 98.400,244.619 99.422,245.611 100.816 C 246.429 101.965,248.004 103.180,250.958 104.940 C 251.641 105.347,252.830 106.473,253.600 107.441 C 257.138 111.890,259.402 114.410,260.044 114.614 C 260.457 114.745,261.180 115.977,261.808 117.621 C 262.853 120.355,263.927 121.600,265.240 121.600 C 265.951 121.600,266.096 121.924,267.806 127.342 C 268.810 130.525,269.952 132.400,270.885 132.400 C 271.433 132.400,272.015 134.341,272.863 139.000 C 274.218 146.441,275.829 151.173,277.177 151.672 C 279.234 152.432,278.536 181.071,276.380 184.432 C 275.090 186.441,274.429 188.481,273.406 193.600 C 271.734 201.968,271.530 202.564,269.954 203.686 C 268.966 204.389,268.382 205.178,268.191 206.069 C 267.422 209.640,264.819 214.800,263.787 214.800 C 262.961 214.800,261.936 216.302,261.557 218.071 C 261.022 220.565,260.391 221.600,259.408 221.600 C 258.202 221.600,256.993 222.856,255.744 225.408 C 255.153 226.613,254.420 227.600,254.115 227.600 C 252.902 227.600,251.159 228.900,250.498 230.298 C 250.114 231.109,249.350 231.978,248.800 232.230 C 244.906 234.010,244.576 234.249,243.800 235.857 C 243.002 237.509,241.438 238.400,239.334 238.400 C 238.908 238.400,238.389 238.558,238.180 238.752 C 237.971 238.945,237.170 239.305,236.400 239.552 C 235.167 239.948,233.511 241.256,232.165 242.896 C 231.926 243.188,229.676 243.745,227.165 244.135 C 217.570 245.623,218.196 245.492,210.600 247.602 C 206.854 248.642,199.350 249.128,197.200 248.469 C 196.430 248.233,194.720 247.662,193.400 247.200 C 190.241 246.095,184.699 244.802,183.085 244.794 C 181.059 244.784,174.216 243.232,174.051 242.745 C 173.713 241.749,170.949 239.589,169.716 239.358 C 168.987 239.221,168.293 238.950,168.172 238.755 C 168.051 238.560,167.558 238.397,167.076 238.394 C 164.970 238.380,163.176 237.355,162.357 235.699 C 161.833 234.641,161.066 233.845,160.175 233.434 C 159.419 233.085,158.196 232.522,157.458 232.182 C 156.491 231.737,155.975 231.138,155.613 230.038 C 155.197 228.779,154.751 228.344,153.065 227.556 C 151.306 226.733,150.852 226.267,149.810 224.214 C 148.784 222.191,148.387 221.776,147.200 221.489 C 145.498 221.076,144.800 220.244,144.799 218.624 C 144.797 217.150,143.449 214.800,142.606 214.800 C 142.273 214.800,142.000 214.611,142.000 214.381 C 142.000 214.150,141.561 213.555,141.024 213.058 C 139.834 211.955,138.400 208.450,138.400 206.645 C 138.400 205.607,137.975 204.869,136.446 203.249 C 134.455 201.139,133.840 199.720,133.213 195.783 C 132.173 189.257,130.437 183.437,129.100 181.991 C 128.462 181.300,128.400 180.026,128.401 167.517 C 128.401 152.697,128.247 153.949,130.571 149.933 C 130.995 149.200,131.480 147.880,131.649 147.000 C 134.017 134.644,134.227 133.907,135.720 132.710 C 137.175 131.543,137.438 130.951,139.184 124.928 C 139.955 122.271,140.122 122.022,141.418 121.594 C 142.870 121.115,143.775 119.797,144.775 116.705 C 145.126 115.620,145.644 115.027,146.663 114.543 C 147.435 114.177,148.212 113.494,148.390 113.026 C 148.702 112.205,150.839 109.559,151.929 108.644 C 153.173 107.599,153.848 106.900,154.595 105.883 C 155.032 105.287,155.535 104.800,155.712 104.800 C 156.248 104.800,160.400 101.603,160.400 101.191 C 160.400 100.226,162.952 98.400,164.299 98.400 C 165.751 98.400,168.400 96.285,168.400 95.127 C 168.400 94.755,169.877 94.205,172.900 93.452 C 177.853 92.217,180.908 90.879,182.029 89.455 C 182.688 88.617,183.283 88.479,188.080 88.055 C 191.006 87.797,193.940 87.514,194.600 87.427 C 197.002 87.109,214.311 87.534,218.400 88.011 M196.767 257.766 C 196.675 257.857,191.920 258.124,186.200 258.359 C 175.042 258.818,172.597 259.101,167.000 260.583 C 165.020 261.107,161.960 261.827,160.200 262.183 C 152.352 263.767,146.750 264.800,146.001 264.800 C 145.554 264.800,143.616 265.610,141.694 266.599 C 139.772 267.589,137.784 268.399,137.275 268.399 C 134.959 268.401,125.985 271.454,125.369 272.449 C 124.992 273.060,121.134 274.800,120.158 274.800 C 119.033 274.800,115.894 276.134,114.262 277.305 C 111.897 279.004,107.886 281.027,106.025 281.461 C 105.461 281.593,104.362 282.308,103.581 283.052 C 102.801 283.795,101.418 284.807,100.507 285.302 C 99.597 285.796,97.788 286.773,96.489 287.474 C 95.189 288.175,93.834 289.193,93.478 289.737 C 93.121 290.281,91.844 291.209,90.640 291.798 C 89.433 292.388,87.531 293.842,86.400 295.037 C 85.272 296.230,83.782 297.499,83.090 297.857 C 82.397 298.215,81.463 298.978,81.015 299.553 C 79.927 300.946,77.961 302.775,76.232 304.000 C 75.457 304.550,74.817 305.163,74.811 305.362 C 74.794 305.915,72.810 308.400,72.385 308.400 C 71.764 308.400,69.188 311.309,68.559 312.722 C 68.236 313.449,67.359 314.405,66.612 314.846 C 65.661 315.407,64.904 316.394,64.091 318.131 C 63.452 319.496,62.675 320.885,62.365 321.217 C 61.009 322.664,59.173 325.231,58.749 326.270 C 58.495 326.892,58.043 327.967,57.744 328.660 C 57.445 329.354,57.200 330.066,57.200 330.243 C 57.200 330.420,56.501 331.563,55.646 332.783 C 53.757 335.478,52.216 339.047,51.666 342.000 C 51.441 343.210,50.692 345.550,50.002 347.200 C 47.159 353.996,46.460 361.794,48.511 363.844 C 48.935 364.268,354.062 363.996,355.753 363.570 L 357.531 363.122 357.966 360.628 C 358.573 357.143,358.517 356.518,357.356 353.800 C 355.544 349.555,354.800 347.432,354.800 346.510 C 354.800 344.138,352.141 336.568,350.716 334.884 C 349.632 333.603,348.400 331.157,348.396 330.277 C 348.392 329.182,346.164 325.238,345.380 324.937 C 345.061 324.815,344.800 324.505,344.800 324.248 C 344.800 323.992,344.261 323.128,343.602 322.329 C 342.943 321.529,342.063 320.093,341.646 319.138 C 341.230 318.182,340.227 316.770,339.418 316.000 C 338.609 315.230,337.566 313.970,337.100 313.200 C 335.815 311.078,334.426 309.495,332.991 308.518 C 332.279 308.033,331.584 307.190,331.447 306.644 C 331.295 306.040,330.111 304.844,328.412 303.581 C 326.879 302.441,325.269 300.906,324.835 300.169 C 324.400 299.432,323.444 298.579,322.711 298.272 C 321.978 297.966,320.554 296.799,319.547 295.679 C 318.540 294.559,317.060 293.329,316.258 292.947 C 315.456 292.565,314.800 292.125,314.800 291.969 C 314.800 291.814,314.358 291.576,313.818 291.440 C 313.278 291.305,312.357 290.565,311.771 289.797 C 311.185 289.029,310.481 288.400,310.206 288.400 C 309.932 288.400,309.279 288.065,308.754 287.656 C 308.229 287.246,306.706 286.345,305.370 285.652 C 304.033 284.959,302.384 283.764,301.704 282.996 C 301.024 282.228,300.094 281.600,299.637 281.600 C 298.725 281.600,291.781 278.216,291.388 277.581 C 290.982 276.923,287.462 275.285,285.778 274.970 C 283.704 274.581,281.811 273.789,279.580 272.374 C 277.271 270.909,271.754 268.954,268.463 268.434 C 266.856 268.180,264.949 267.488,263.263 266.548 C 261.798 265.732,259.790 264.939,258.800 264.786 C 257.810 264.634,254.030 263.924,250.400 263.208 C 246.770 262.493,242.878 261.767,241.751 261.595 C 240.624 261.423,239.331 261.084,238.878 260.841 C 237.361 260.030,232.400 259.203,226.673 258.808 C 211.659 257.770,197.266 257.269,196.767 257.766 M216.400 259.972 C 220.113 260.150,222.848 260.485,224.000 260.902 C 228.377 262.488,242.542 264.800,247.883 264.800 C 251.734 264.800,255.224 265.585,256.164 266.662 C 257.263 267.922,261.628 269.411,266.600 270.222 C 272.507 271.186,273.876 271.620,274.461 272.714 C 275.131 273.966,276.360 274.560,280.000 275.394 C 285.626 276.683,286.934 277.212,288.466 278.821 C 289.974 280.405,292.250 281.602,293.749 281.598 C 295.030 281.595,298.400 282.896,298.400 283.394 C 298.400 284.719,304.710 288.400,306.982 288.400 C 307.233 288.400,307.657 289.001,307.923 289.736 C 308.315 290.822,308.965 291.361,311.388 292.607 C 313.218 293.548,315.265 295.041,316.685 296.470 C 318.134 297.927,319.702 299.064,320.877 299.508 C 322.477 300.114,322.920 300.538,323.889 302.393 C 324.864 304.259,325.251 304.627,326.613 304.984 C 328.753 305.544,329.058 305.788,329.332 307.159 C 329.681 308.905,331.814 311.129,333.431 311.432 C 334.599 311.651,334.800 311.852,334.800 312.800 C 334.800 313.820,337.278 318.019,338.066 318.333 C 338.250 318.407,338.400 318.691,338.400 318.966 C 338.400 319.240,338.820 319.689,339.332 319.964 C 340.494 320.586,341.600 322.409,341.600 323.703 C 341.600 325.077,343.158 327.217,344.705 327.967 C 345.484 328.345,346.107 329.003,346.251 329.600 C 346.384 330.150,346.922 331.909,347.447 333.508 C 347.971 335.108,348.400 336.775,348.400 337.212 C 348.400 337.678,349.035 338.460,349.930 339.097 C 351.580 340.272,352.145 342.070,353.198 349.509 C 353.425 351.109,353.875 353.179,354.199 354.109 C 355.201 356.986,355.002 358.035,353.099 359.902 L 351.399 361.571 348.600 360.986 C 345.496 360.336,61.937 360.137,57.000 360.780 C 54.372 361.123,52.694 360.678,51.134 359.224 C 50.647 358.771,50.024 358.400,49.748 358.400 C 48.669 358.400,48.788 357.474,50.121 355.481 C 51.175 353.906,51.680 352.524,52.199 349.800 C 54.147 339.558,54.274 339.119,55.584 338.093 C 57.217 336.816,58.154 334.836,58.799 331.303 C 59.321 328.439,59.632 327.901,61.616 326.429 C 62.583 325.711,64.087 323.037,65.232 320.000 C 65.522 319.230,66.129 318.334,66.580 318.008 C 68.879 316.348,70.258 314.714,70.899 312.890 C 71.478 311.240,71.797 310.861,72.767 310.667 C 74.228 310.374,75.889 308.626,76.232 307.019 C 76.591 305.336,77.114 304.800,78.395 304.800 C 79.649 304.800,81.600 303.431,81.600 302.551 C 81.600 301.029,82.769 299.770,84.862 299.035 C 87.373 298.153,88.310 297.435,88.478 296.264 C 88.562 295.674,89.419 294.977,91.253 294.005 C 92.712 293.232,94.152 292.394,94.453 292.143 C 94.754 291.892,95.360 291.620,95.800 291.538 C 96.240 291.457,96.955 290.730,97.389 289.922 C 98.040 288.709,98.562 288.335,100.389 287.771 C 103.724 286.741,104.526 286.226,105.504 284.486 C 105.999 283.605,106.801 282.794,107.299 282.670 C 107.795 282.548,109.640 282.091,111.400 281.655 C 114.217 280.958,114.792 280.654,116.200 279.117 C 117.661 277.523,124.868 274.800,127.627 274.800 C 128.057 274.800,128.172 274.720,130.447 272.819 C 131.935 271.576,132.405 271.439,140.200 269.975 C 142.620 269.521,144.771 268.981,144.980 268.775 C 145.189 268.569,145.798 268.400,146.333 268.400 C 146.926 268.400,147.820 267.855,148.623 267.003 C 150.088 265.449,148.843 265.684,163.600 264.186 C 169.643 263.573,179.350 261.609,180.985 260.669 C 182.516 259.788,203.840 259.369,216.400 259.972 " stroke="none" fill="#babcc2" fill-rule="evenodd"></path><path id="path3" d="M198.600 82.650 C 197.017 82.962,193.731 83.556,190.000 84.204 C 179.908 85.958,179.563 86.058,174.000 88.821 C 171.030 90.297,168.113 91.617,167.517 91.755 C 166.921 91.894,165.931 92.476,165.317 93.049 C 164.703 93.623,162.940 94.912,161.400 95.915 C 159.860 96.918,158.540 97.887,158.467 98.069 C 158.393 98.251,158.020 98.400,157.636 98.400 C 156.855 98.400,155.200 99.989,155.200 100.738 C 155.200 101.006,154.885 101.339,154.500 101.477 C 153.116 101.977,148.770 105.780,148.541 106.693 C 148.412 107.206,147.518 108.169,146.553 108.832 C 145.589 109.496,144.800 110.197,144.800 110.391 C 144.800 110.584,144.573 110.981,144.295 111.271 C 144.018 111.562,143.020 112.994,142.079 114.453 C 141.138 115.911,140.014 117.426,139.581 117.817 C 139.148 118.209,138.551 118.995,138.253 119.565 C 137.955 120.134,136.994 121.981,136.117 123.670 C 135.239 125.358,134.084 127.260,133.550 127.895 C 133.015 128.531,132.340 129.849,132.050 130.825 C 130.738 135.244,129.880 137.831,129.606 138.200 C 126.487 142.393,124.542 156.141,124.918 171.330 C 125.228 183.851,126.064 188.615,129.215 195.811 C 130.047 197.711,131.507 202.156,131.792 203.654 C 131.902 204.234,132.646 205.674,133.446 206.854 C 134.245 208.034,135.863 210.903,137.041 213.228 C 138.419 215.947,139.537 217.645,140.173 217.985 C 140.717 218.277,141.336 219.014,141.548 219.624 C 142.036 221.023,144.852 224.747,145.446 224.777 C 145.691 224.790,146.372 225.493,146.959 226.340 C 148.536 228.617,154.744 234.522,156.696 235.603 C 157.628 236.120,158.495 236.871,158.623 237.272 C 158.750 237.673,159.247 238.203,159.727 238.450 C 160.207 238.698,160.960 239.211,161.400 239.591 C 161.840 239.971,163.063 240.623,164.118 241.041 C 165.172 241.458,166.857 242.475,167.861 243.300 C 168.865 244.125,169.992 244.800,170.364 244.800 C 170.736 244.800,171.211 244.957,171.420 245.148 C 171.629 245.339,173.150 245.955,174.800 246.516 C 179.387 248.074,180.375 248.458,183.400 249.855 C 192.251 253.941,221.885 253.200,224.800 248.820 C 224.910 248.654,225.450 248.411,226.000 248.279 C 227.729 247.864,234.168 245.644,234.895 245.212 C 235.277 244.986,235.936 244.800,236.361 244.800 C 236.785 244.800,237.642 244.246,238.266 243.569 C 238.890 242.892,240.554 241.785,241.965 241.109 C 244.726 239.787,245.423 239.309,247.524 237.298 C 248.273 236.581,249.444 235.681,250.127 235.298 C 250.810 234.914,252.786 233.250,254.517 231.600 C 256.249 229.950,257.831 228.540,258.033 228.467 C 258.235 228.393,258.401 228.123,258.402 227.867 C 258.404 227.352,260.671 224.800,261.126 224.800 C 261.283 224.800,261.856 224.080,262.400 223.200 C 262.944 222.320,263.505 221.600,263.646 221.600 C 263.787 221.600,264.137 221.015,264.422 220.300 C 264.708 219.585,265.546 218.486,266.285 217.859 C 267.025 217.231,268.151 215.611,268.788 214.259 C 270.008 211.671,271.635 208.738,272.039 208.400 C 272.769 207.791,274.491 204.030,274.809 202.352 C 275.012 201.280,275.544 199.602,275.989 198.623 C 276.435 197.645,276.800 196.678,276.800 196.476 C 276.800 196.273,277.127 195.679,277.526 195.154 C 282.855 188.154,282.550 148.744,277.090 138.800 C 276.085 136.969,275.212 134.503,274.373 131.118 C 274.116 130.084,273.071 128.014,272.050 126.518 C 271.029 125.023,269.666 122.720,269.022 121.400 C 268.377 120.080,267.152 118.190,266.300 117.200 C 264.372 114.961,264.324 114.897,263.062 112.898 C 261.676 110.703,259.625 108.400,259.056 108.400 C 258.803 108.400,258.371 107.894,258.097 107.275 C 257.361 105.612,253.154 101.600,252.145 101.600 C 251.940 101.600,251.460 101.071,251.078 100.425 C 250.696 99.778,249.353 98.667,248.092 97.955 C 246.831 97.243,245.291 96.242,244.669 95.730 C 244.047 95.219,243.346 94.800,243.110 94.800 C 242.874 94.800,242.075 94.176,241.335 93.414 C 240.594 92.651,239.316 91.846,238.494 91.624 C 237.672 91.402,234.906 90.158,232.346 88.859 C 227.704 86.503,224.255 85.471,217.600 84.445 C 216.170 84.225,212.953 83.675,210.452 83.222 C 206.389 82.488,200.796 82.218,198.600 82.650 M216.868 85.776 C 223.722 86.944,227.335 88.008,230.717 89.857 C 232.102 90.614,234.285 91.560,235.569 91.960 C 237.623 92.599,240.184 94.099,241.404 95.377 C 242.227 96.240,245.477 98.283,246.423 98.532 C 246.960 98.673,248.645 99.973,250.166 101.419 C 251.688 102.865,253.440 104.310,254.060 104.631 C 254.679 104.951,255.445 105.714,255.762 106.326 C 256.337 107.439,258.524 109.809,260.532 111.497 C 261.120 111.991,261.600 112.686,261.600 113.042 C 261.600 113.398,262.320 114.549,263.200 115.600 C 264.080 116.651,264.800 117.711,264.800 117.956 C 264.800 118.200,264.963 118.400,265.162 118.400 C 265.711 118.400,268.400 122.302,268.401 123.101 C 268.403 123.880,269.691 126.171,270.817 127.400 C 271.888 128.568,273.980 133.704,274.609 136.710 C 274.908 138.142,275.828 140.683,276.653 142.356 C 277.586 144.250,278.264 146.307,278.445 147.800 C 278.605 149.120,278.964 151.730,279.241 153.600 C 279.927 158.222,279.946 177.224,279.269 181.200 C 278.988 182.850,278.588 185.538,278.380 187.173 C 278.120 189.216,277.578 190.967,276.649 192.773 C 275.905 194.218,274.912 196.930,274.443 198.800 C 273.514 202.507,272.136 205.568,270.093 208.462 C 269.371 209.486,268.519 211.196,268.201 212.262 C 267.820 213.536,266.927 214.953,265.592 216.400 C 264.475 217.610,263.259 219.228,262.889 219.996 C 262.520 220.763,261.359 222.283,260.309 223.372 C 259.259 224.461,258.400 225.460,258.400 225.590 C 258.400 226.151,249.785 234.094,248.422 234.789 C 247.598 235.209,246.367 236.188,245.686 236.963 C 245.005 237.739,243.582 238.772,242.524 239.260 C 241.466 239.747,239.091 241.130,237.247 242.333 C 234.887 243.873,233.171 244.674,231.447 245.040 C 228.270 245.717,224.284 247.045,222.009 248.186 C 213.971 252.217,192.823 252.087,183.644 247.951 C 180.564 246.563,175.098 244.800,173.875 244.800 C 173.389 244.800,171.823 244.017,170.396 243.061 C 167.314 240.996,164.009 239.200,163.293 239.200 C 163.010 239.200,161.967 238.388,160.975 237.396 C 159.982 236.403,158.469 235.149,157.613 234.608 C 155.023 232.973,148.400 226.666,148.400 225.834 C 148.400 225.570,147.684 224.824,146.809 224.177 C 145.935 223.530,145.215 222.878,145.209 222.729 C 145.204 222.579,144.968 222.219,144.686 221.929 C 144.149 221.377,141.600 217.659,141.600 217.427 C 141.600 217.354,140.880 216.574,140.000 215.694 C 139.019 214.713,138.400 213.721,138.400 213.130 C 138.400 212.257,135.034 205.857,133.808 204.400 C 133.223 203.705,131.785 199.307,131.407 197.060 C 131.120 195.349,130.128 192.961,129.274 191.922 C 125.115 186.868,125.510 151.964,129.834 142.388 C 130.583 140.731,131.388 138.301,131.625 136.988 C 132.079 134.467,134.089 129.548,135.215 128.200 C 135.976 127.289,137.084 125.232,138.602 121.910 C 139.178 120.650,140.043 119.300,140.524 118.910 C 141.006 118.519,141.654 117.708,141.964 117.107 C 142.274 116.505,142.870 115.646,143.288 115.197 C 143.707 114.748,144.304 113.770,144.616 113.024 C 144.928 112.277,145.772 111.263,146.491 110.769 C 147.986 109.743,148.829 108.826,150.218 106.711 C 150.756 105.893,151.782 104.922,152.498 104.554 C 153.214 104.186,154.880 102.810,156.200 101.496 C 157.520 100.182,159.230 98.838,160.000 98.508 C 160.770 98.179,161.490 97.777,161.600 97.615 C 161.710 97.452,162.520 96.842,163.400 96.258 C 164.280 95.674,165.810 94.576,166.800 93.817 C 167.790 93.059,169.500 92.229,170.600 91.973 C 171.700 91.717,173.590 90.966,174.800 90.303 C 178.854 88.082,179.785 87.698,182.800 87.003 C 193.559 84.521,206.717 84.047,216.868 85.776 M200.000 255.883 C 198.790 255.957,192.400 256.471,185.800 257.024 C 179.200 257.578,172.360 258.132,170.600 258.257 C 167.466 258.479,163.389 259.278,161.800 259.982 C 160.030 260.766,156.992 261.600,155.906 261.600 C 152.996 261.600,140.718 264.638,138.953 265.794 C 137.331 266.857,134.100 267.969,131.366 268.405 C 129.909 268.638,127.809 269.317,126.699 269.914 C 121.843 272.526,119.660 273.556,117.600 274.208 C 114.786 275.098,113.323 275.854,111.686 277.266 C 110.963 277.890,110.171 278.400,109.926 278.400 C 109.059 278.400,102.191 281.963,101.514 282.764 C 101.137 283.210,99.607 284.196,98.114 284.955 C 96.622 285.714,94.320 287.245,93.000 288.357 C 91.680 289.469,89.790 290.819,88.800 291.358 C 87.810 291.897,86.122 293.251,85.050 294.369 C 83.977 295.486,82.970 296.400,82.812 296.400 C 82.654 296.400,82.001 296.850,81.362 297.400 C 80.723 297.949,80.089 298.399,79.953 298.400 C 79.817 298.400,79.230 299.120,78.647 300.000 C 78.065 300.880,77.353 301.600,77.065 301.600 C 76.580 301.600,71.971 306.421,71.664 307.249 C 71.589 307.451,70.990 307.895,70.332 308.235 C 69.675 308.575,68.896 309.430,68.602 310.134 C 68.307 310.839,67.016 312.503,65.733 313.832 C 64.450 315.162,62.876 317.288,62.236 318.558 C 61.595 319.827,60.680 321.122,60.202 321.436 C 59.724 321.749,59.140 322.409,58.906 322.903 C 56.974 326.966,54.585 331.439,53.437 333.145 C 52.622 334.356,51.868 336.136,51.594 337.497 C 51.339 338.764,50.533 341.240,49.802 343.000 C 43.607 357.928,44.174 365.204,51.531 365.197 C 53.219 365.195,121.830 365.202,204.000 365.212 C 360.114 365.232,357.610 365.255,358.574 363.783 C 360.116 361.431,359.581 353.618,357.589 349.400 C 356.514 347.122,355.276 343.340,354.828 340.961 C 354.430 338.849,353.112 335.771,351.420 333.000 C 350.081 330.807,348.400 327.218,348.400 326.551 C 348.400 326.249,347.795 325.327,347.057 324.501 C 345.740 323.030,342.024 317.282,341.491 315.892 C 341.342 315.505,340.793 315.026,340.272 314.827 C 339.750 314.629,339.000 313.786,338.605 312.954 C 337.948 311.570,335.703 309.041,330.535 303.861 C 325.914 299.230,323.296 296.800,322.930 296.800 C 322.713 296.800,321.381 295.630,319.969 294.200 C 318.558 292.770,317.121 291.600,316.777 291.600 C 316.433 291.600,315.802 291.285,315.375 290.900 C 312.003 287.855,307.647 284.800,306.680 284.800 C 306.307 284.800,305.279 284.146,304.394 283.347 C 302.866 281.967,296.467 278.412,295.469 278.389 C 295.211 278.383,293.934 277.573,292.630 276.589 C 291.327 275.605,289.917 274.800,289.497 274.800 C 288.324 274.800,282.903 272.535,280.000 270.832 C 278.570 269.993,276.410 269.079,275.200 268.801 C 270.551 267.733,266.463 266.348,265.244 265.429 C 264.197 264.639,254.226 262.176,249.730 261.597 C 248.151 261.393,245.181 260.667,243.130 259.982 C 239.936 258.916,238.136 258.628,230.600 257.979 C 225.760 257.561,219.910 257.029,217.600 256.796 C 212.734 256.306,203.186 255.600,202.600 255.688 C 202.380 255.721,201.210 255.809,200.000 255.883 M213.400 258.002 C 230.836 258.951,236.532 259.586,238.878 260.841 C 239.331 261.084,240.624 261.423,241.751 261.595 C 242.878 261.767,246.770 262.493,250.400 263.208 C 254.030 263.924,257.810 264.634,258.800 264.786 C 259.790 264.939,261.798 265.732,263.263 266.548 C 264.949 267.488,266.856 268.180,268.463 268.434 C 271.754 268.954,277.271 270.909,279.580 272.374 C 281.811 273.789,283.704 274.581,285.778 274.970 C 287.462 275.285,290.982 276.923,291.388 277.581 C 291.781 278.216,298.725 281.600,299.637 281.600 C 300.094 281.600,301.024 282.228,301.704 282.996 C 302.384 283.764,304.033 284.959,305.370 285.652 C 306.706 286.345,308.229 287.246,308.754 287.656 C 309.279 288.065,309.932 288.400,310.206 288.400 C 310.481 288.400,311.185 289.029,311.771 289.797 C 312.357 290.565,313.278 291.305,313.818 291.440 C 314.358 291.576,314.800 291.814,314.800 291.969 C 314.800 292.125,315.456 292.565,316.258 292.947 C 317.060 293.329,318.540 294.559,319.547 295.679 C 320.554 296.799,321.978 297.966,322.711 298.272 C 323.444 298.579,324.400 299.432,324.835 300.169 C 325.269 300.906,326.879 302.441,328.412 303.581 C 330.111 304.844,331.295 306.040,331.447 306.644 C 331.584 307.190,332.279 308.033,332.991 308.518 C 334.426 309.495,335.815 311.078,337.100 313.200 C 337.566 313.970,338.609 315.230,339.418 316.000 C 340.227 316.770,341.230 318.182,341.646 319.138 C 342.063 320.093,342.943 321.529,343.602 322.329 C 344.261 323.128,344.800 323.992,344.800 324.248 C 344.800 324.505,345.061 324.815,345.380 324.937 C 346.164 325.238,348.392 329.182,348.396 330.277 C 348.400 331.157,349.632 333.603,350.716 334.884 C 352.141 336.568,354.800 344.138,354.800 346.510 C 354.800 347.432,355.544 349.555,357.356 353.800 C 358.517 356.518,358.573 357.143,357.966 360.628 L 357.531 363.122 355.753 363.570 C 354.062 363.996,48.935 364.268,48.511 363.844 C 46.460 361.794,47.159 353.996,50.002 347.200 C 50.692 345.550,51.441 343.210,51.666 342.000 C 52.216 339.047,53.757 335.478,55.646 332.783 C 56.501 331.563,57.200 330.420,57.200 330.243 C 57.200 330.066,57.445 329.354,57.744 328.660 C 58.043 327.967,58.495 326.892,58.749 326.270 C 59.173 325.231,61.009 322.664,62.365 321.217 C 62.675 320.885,63.452 319.496,64.091 318.131 C 64.904 316.394,65.661 315.407,66.612 314.846 C 67.359 314.405,68.236 313.449,68.559 312.722 C 69.188 311.309,71.764 308.400,72.385 308.400 C 72.810 308.400,74.794 305.915,74.811 305.362 C 74.817 305.163,75.457 304.550,76.232 304.000 C 77.961 302.775,79.927 300.946,81.015 299.553 C 81.463 298.978,82.397 298.215,83.090 297.857 C 83.782 297.499,85.272 296.230,86.400 295.037 C 87.531 293.842,89.433 292.388,90.640 291.798 C 91.844 291.209,93.121 290.281,93.478 289.737 C 93.834 289.193,95.189 288.175,96.489 287.474 C 97.788 286.773,99.597 285.796,100.507 285.302 C 101.418 284.807,102.801 283.795,103.581 283.052 C 104.362 282.308,105.461 281.593,106.025 281.461 C 107.886 281.027,111.897 279.004,114.262 277.305 C 115.894 276.134,119.033 274.800,120.158 274.800 C 121.134 274.800,124.992 273.060,125.369 272.449 C 125.985 271.454,134.959 268.401,137.275 268.399 C 137.784 268.399,139.772 267.589,141.694 266.599 C 143.616 265.610,145.554 264.800,146.001 264.800 C 146.750 264.800,152.352 263.767,160.200 262.183 C 161.960 261.827,165.020 261.107,167.000 260.583 C 172.597 259.101,175.042 258.818,186.200 258.359 C 191.920 258.124,196.675 257.857,196.767 257.766 C 197.073 257.461,205.718 257.583,213.400 258.002 " stroke="none" fill="#c8ccd0" fill-rule="evenodd"></path><path id="path4" d="M192.496 81.182 C 190.458 81.568,188.478 82.150,188.096 82.475 C 187.404 83.063,180.218 84.807,178.504 84.802 C 177.134 84.799,172.447 86.798,171.859 87.637 C 171.572 88.046,170.272 88.846,168.969 89.413 C 164.299 91.448,162.323 92.584,161.541 93.683 C 161.103 94.298,160.550 94.800,160.311 94.800 C 160.071 94.800,159.286 95.250,158.564 95.800 C 157.843 96.350,157.072 96.800,156.851 96.800 C 156.301 96.800,154.198 98.810,153.666 99.844 C 153.427 100.309,152.223 101.199,150.990 101.823 C 149.188 102.734,148.595 103.293,147.968 104.671 C 147.465 105.774,146.442 106.937,145.094 107.937 C 143.537 109.092,142.653 110.171,141.648 112.145 C 140.699 114.009,140.071 114.800,139.538 114.800 C 139.101 114.800,138.622 115.216,138.406 115.785 C 138.200 116.327,137.573 117.463,137.012 118.310 C 136.452 119.156,135.660 120.797,135.252 121.956 C 134.738 123.416,134.141 124.287,133.306 124.794 C 132.283 125.416,131.910 126.150,130.828 129.663 C 129.079 135.342,128.811 135.998,127.590 137.600 C 126.021 139.657,125.204 142.474,124.806 147.200 C 124.611 149.510,124.150 154.280,123.781 157.800 C 122.791 167.233,123.207 176.662,125.226 190.598 C 125.620 193.317,127.075 197.151,128.184 198.389 C 128.485 198.725,129.482 201.293,130.400 204.094 C 131.639 207.878,132.391 209.525,133.323 210.494 C 134.012 211.213,135.173 213.150,135.903 214.800 C 137.045 217.385,139.128 219.996,140.051 219.999 C 140.189 220.000,140.684 220.889,141.151 221.976 C 141.628 223.083,143.101 225.093,144.501 226.547 C 145.875 227.975,148.080 230.332,149.400 231.786 C 150.720 233.240,152.880 235.136,154.200 236.000 C 155.520 236.863,157.363 238.383,158.296 239.376 C 159.228 240.370,160.488 241.287,161.096 241.416 C 163.152 241.850,164.817 242.792,165.170 243.721 C 165.602 244.857,169.802 246.862,173.800 247.840 C 175.764 248.321,177.035 248.913,178.055 249.821 C 179.919 251.481,184.809 252.931,192.693 254.162 L 196.200 254.709 193.600 254.754 C 192.170 254.779,188.390 255.060,185.200 255.379 C 182.010 255.698,176.340 256.152,172.600 256.388 C 165.128 256.858,158.140 258.166,155.838 259.525 C 154.281 260.443,149.322 261.598,146.917 261.603 C 143.642 261.609,135.692 264.204,134.820 265.552 C 134.576 265.929,128.593 267.731,125.253 268.434 C 123.880 268.724,122.583 269.339,121.653 270.143 C 119.998 271.574,118.277 272.454,115.400 273.339 C 111.827 274.438,110.303 275.235,108.722 276.832 C 107.782 277.781,106.794 278.400,106.218 278.400 C 104.885 278.400,101.947 279.732,101.038 280.748 C 100.619 281.217,100.035 281.600,99.741 281.600 C 99.447 281.600,98.980 281.985,98.703 282.455 C 98.427 282.926,96.760 283.990,95.000 284.821 C 92.857 285.832,91.539 286.733,91.008 287.548 C 90.567 288.227,89.001 289.432,87.469 290.272 C 85.510 291.346,84.474 292.211,83.861 293.286 C 83.387 294.115,82.762 294.795,82.472 294.797 C 81.694 294.801,78.401 297.160,78.392 297.719 C 78.388 297.984,77.749 298.740,76.974 299.400 C 76.198 300.060,74.487 301.680,73.171 303.000 C 71.855 304.320,70.584 305.580,70.346 305.800 C 68.584 307.431,66.756 309.518,66.565 310.117 C 66.438 310.512,65.270 311.871,63.968 313.137 C 62.250 314.807,61.600 315.731,61.600 316.501 C 61.600 317.475,61.105 318.142,58.950 320.072 C 58.538 320.441,58.017 320.981,57.794 321.272 C 57.130 322.138,54.800 327.416,54.800 328.057 C 54.800 328.383,54.250 329.056,53.579 329.552 C 52.164 330.598,52.087 330.763,50.262 336.600 C 49.451 339.195,48.310 341.856,47.480 343.087 C 45.477 346.056,44.429 351.843,44.417 360.000 C 44.411 364.008,44.844 365.060,47.008 366.285 L 48.600 367.187 201.600 367.170 C 359.805 367.152,357.502 367.175,359.529 365.571 C 362.710 363.052,361.517 348.861,357.748 344.385 C 357.463 344.047,356.509 341.257,355.629 338.185 C 354.346 333.708,353.805 332.398,352.898 331.581 C 352.277 331.020,351.358 329.580,350.857 328.381 C 348.878 323.644,347.757 321.644,346.684 320.938 C 346.052 320.522,345.029 319.090,344.339 317.654 C 343.170 315.222,342.326 314.218,339.915 312.388 C 339.255 311.888,338.725 311.009,338.563 310.145 C 338.358 309.052,337.855 308.407,336.381 307.348 C 335.327 306.591,333.892 305.078,333.191 303.986 C 332.280 302.566,331.416 301.779,330.159 301.223 C 329.140 300.772,328.400 300.176,328.400 299.807 C 328.400 298.844,325.448 296.147,323.405 295.244 C 322.240 294.728,321.595 294.189,321.587 293.722 C 321.568 292.617,320.812 291.908,318.289 290.628 C 317.018 289.983,315.373 288.723,314.634 287.828 C 313.894 286.932,312.594 285.867,311.745 285.460 C 307.730 283.536,306.804 282.973,305.057 281.392 C 303.754 280.212,302.343 279.425,300.427 278.809 C 298.707 278.256,297.111 277.409,296.178 276.555 C 294.628 275.135,291.863 273.723,289.818 273.307 C 289.167 273.175,288.177 272.828,287.618 272.536 C 287.058 272.244,286.420 272.002,286.200 271.998 C 285.980 271.994,284.643 271.183,283.229 270.196 C 281.815 269.208,280.312 268.400,279.889 268.400 C 278.692 268.400,270.672 265.988,270.000 265.425 C 268.210 263.928,261.007 261.600,258.162 261.600 C 255.918 261.600,251.235 260.446,249.460 259.454 C 248.526 258.933,247.141 258.413,246.381 258.299 C 245.622 258.185,243.470 257.800,241.600 257.444 C 239.730 257.087,235.590 256.617,232.400 256.399 C 229.210 256.181,223.810 255.730,220.400 255.397 C 216.990 255.064,213.480 254.748,212.600 254.695 C 211.426 254.625,212.164 254.402,215.371 253.858 C 222.675 252.617,227.545 250.954,228.604 249.338 C 228.966 248.786,229.613 248.400,230.178 248.400 C 233.097 248.400,240.892 244.802,241.393 243.223 C 241.563 242.685,242.318 242.218,243.659 241.820 C 246.009 241.122,248.399 239.735,248.403 239.067 C 248.404 238.810,249.079 238.150,249.903 237.600 C 250.726 237.050,251.848 236.195,252.396 235.700 C 252.944 235.205,253.520 234.800,253.678 234.800 C 254.146 234.800,258.252 230.657,258.517 229.916 C 258.652 229.540,259.399 228.820,260.176 228.316 C 260.954 227.812,261.592 227.209,261.595 226.975 C 261.598 226.741,262.157 226.021,262.838 225.375 C 263.519 224.729,264.439 223.434,264.883 222.498 C 265.327 221.562,266.356 220.268,267.170 219.623 C 268.229 218.785,269.085 217.476,270.177 215.026 C 271.017 213.141,271.935 211.600,272.219 211.600 C 273.065 211.600,274.425 208.984,275.396 205.485 C 276.469 201.618,277.044 200.246,278.302 198.542 C 279.668 196.693,280.803 193.117,281.227 189.334 C 281.432 187.500,281.799 184.425,282.041 182.500 C 282.731 177.029,282.962 162.271,282.430 157.692 C 282.174 155.492,281.803 151.698,281.605 149.261 C 281.083 142.836,278.954 135.600,277.585 135.600 C 277.403 135.600,277.142 135.195,277.005 134.700 C 276.571 133.134,274.703 127.042,274.336 125.998 C 274.142 125.447,273.486 124.661,272.878 124.252 C 272.270 123.844,271.444 122.717,271.044 121.748 C 270.643 120.779,269.901 119.376,269.394 118.629 C 268.887 117.882,268.410 116.946,268.333 116.550 C 268.257 116.153,267.568 115.406,266.803 114.890 C 266.006 114.354,264.990 113.096,264.425 111.948 C 263.281 109.622,262.254 108.473,260.464 107.514 C 259.638 107.071,258.916 106.203,258.429 105.068 C 257.668 103.293,255.817 101.600,254.638 101.600 C 254.286 101.600,253.373 100.730,252.609 99.666 C 251.335 97.892,247.042 94.804,245.840 94.797 C 245.598 94.796,245.110 94.285,244.756 93.662 C 244.114 92.534,239.996 90.260,236.697 89.213 C 235.870 88.951,235.009 88.390,234.783 87.967 C 234.225 86.925,230.857 85.271,228.733 84.995 C 225.115 84.526,218.579 83.022,218.098 82.547 C 216.058 80.538,200.325 79.699,192.496 81.182 M210.452 83.222 C 212.953 83.675,216.170 84.225,217.600 84.445 C 224.255 85.471,227.704 86.503,232.346 88.859 C 234.906 90.158,237.672 91.402,238.494 91.624 C 239.316 91.846,240.594 92.651,241.335 93.414 C 242.075 94.176,242.874 94.800,243.110 94.800 C 243.346 94.800,244.047 95.219,244.669 95.730 C 245.291 96.242,246.831 97.243,248.092 97.955 C 249.353 98.667,250.696 99.778,251.078 100.425 C 251.460 101.071,251.940 101.600,252.145 101.600 C 253.154 101.600,257.361 105.612,258.097 107.275 C 258.371 107.894,258.803 108.400,259.056 108.400 C 259.625 108.400,261.676 110.703,263.062 112.898 C 264.324 114.897,264.372 114.961,266.300 117.200 C 267.152 118.190,268.377 120.080,269.022 121.400 C 269.666 122.720,271.029 125.023,272.050 126.518 C 273.071 128.014,274.116 130.084,274.373 131.118 C 275.212 134.503,276.085 136.969,277.090 138.800 C 282.550 148.744,282.855 188.154,277.526 195.154 C 277.127 195.679,276.800 196.273,276.800 196.476 C 276.800 196.678,276.435 197.645,275.989 198.623 C 275.544 199.602,275.012 201.280,274.809 202.352 C 274.491 204.030,272.769 207.791,272.039 208.400 C 271.635 208.738,270.008 211.671,268.788 214.259 C 268.151 215.611,267.025 217.231,266.285 217.859 C 265.546 218.486,264.708 219.585,264.422 220.300 C 264.137 221.015,263.787 221.600,263.646 221.600 C 263.505 221.600,262.944 222.320,262.400 223.200 C 261.856 224.080,261.283 224.800,261.126 224.800 C 260.671 224.800,258.404 227.352,258.402 227.867 C 258.401 228.123,258.235 228.393,258.033 228.467 C 257.831 228.540,256.249 229.950,254.517 231.600 C 252.786 233.250,250.810 234.914,250.127 235.298 C 249.444 235.681,248.273 236.581,247.524 237.298 C 245.423 239.309,244.726 239.787,241.965 241.109 C 240.554 241.785,238.890 242.892,238.266 243.569 C 237.642 244.246,236.785 244.800,236.361 244.800 C 235.936 244.800,235.277 244.986,234.895 245.212 C 234.168 245.644,227.729 247.864,226.000 248.279 C 225.450 248.411,224.910 248.654,224.800 248.820 C 221.885 253.200,192.251 253.941,183.400 249.855 C 180.375 248.458,179.387 248.074,174.800 246.516 C 173.150 245.955,171.629 245.339,171.420 245.148 C 171.211 244.957,170.736 244.800,170.364 244.800 C 169.992 244.800,168.865 244.125,167.861 243.300 C 166.857 242.475,165.172 241.458,164.118 241.041 C 163.063 240.623,161.840 239.971,161.400 239.591 C 160.960 239.211,160.207 238.698,159.727 238.450 C 159.247 238.203,158.750 237.673,158.623 237.272 C 158.495 236.871,157.628 236.120,156.696 235.603 C 154.744 234.522,148.536 228.617,146.959 226.340 C 146.372 225.493,145.691 224.790,145.446 224.777 C 144.852 224.747,142.036 221.023,141.548 219.624 C 141.336 219.014,140.717 218.277,140.173 217.985 C 139.537 217.645,138.419 215.947,137.041 213.228 C 135.863 210.903,134.245 208.034,133.446 206.854 C 132.646 205.674,131.902 204.234,131.792 203.654 C 131.507 202.156,130.047 197.711,129.215 195.811 C 126.064 188.615,125.228 183.851,124.918 171.330 C 124.542 156.141,126.487 142.393,129.606 138.200 C 129.880 137.831,130.738 135.244,132.050 130.825 C 132.340 129.849,133.015 128.531,133.550 127.895 C 134.084 127.260,135.239 125.358,136.117 123.670 C 136.994 121.981,137.955 120.134,138.253 119.565 C 138.551 118.995,139.148 118.209,139.581 117.817 C 140.014 117.426,141.138 115.911,142.079 114.453 C 143.020 112.994,144.018 111.562,144.295 111.271 C 144.573 110.981,144.800 110.584,144.800 110.391 C 144.800 110.197,145.589 109.496,146.553 108.832 C 147.518 108.169,148.412 107.206,148.541 106.693 C 148.770 105.780,153.116 101.977,154.500 101.477 C 154.885 101.339,155.200 101.006,155.200 100.738 C 155.200 99.989,156.855 98.400,157.636 98.400 C 158.020 98.400,158.393 98.251,158.467 98.069 C 158.540 97.887,159.860 96.918,161.400 95.915 C 162.940 94.912,164.703 93.623,165.317 93.049 C 165.931 92.476,166.921 91.894,167.517 91.755 C 168.113 91.617,171.030 90.297,174.000 88.821 C 179.563 86.058,179.908 85.958,190.000 84.204 C 193.731 83.556,197.017 82.962,198.600 82.650 C 200.796 82.218,206.389 82.488,210.452 83.222 M208.200 256.001 C 211.060 256.205,215.290 256.564,217.600 256.796 C 219.910 257.029,225.760 257.561,230.600 257.979 C 238.136 258.628,239.936 258.916,243.130 259.982 C 245.181 260.667,248.151 261.393,249.730 261.597 C 254.226 262.176,264.197 264.639,265.244 265.429 C 266.463 266.348,270.551 267.733,275.200 268.801 C 276.410 269.079,278.570 269.993,280.000 270.832 C 282.903 272.535,288.324 274.800,289.497 274.800 C 289.917 274.800,291.327 275.605,292.630 276.589 C 293.934 277.573,295.211 278.383,295.469 278.389 C 296.467 278.412,302.866 281.967,304.394 283.347 C 305.279 284.146,306.307 284.800,306.680 284.800 C 307.647 284.800,312.003 287.855,315.375 290.900 C 315.802 291.285,316.433 291.600,316.777 291.600 C 317.121 291.600,318.558 292.770,319.969 294.200 C 321.381 295.630,322.713 296.800,322.930 296.800 C 323.296 296.800,325.914 299.230,330.535 303.861 C 335.703 309.041,337.948 311.570,338.605 312.954 C 339.000 313.786,339.750 314.629,340.272 314.827 C 340.793 315.026,341.342 315.505,341.491 315.892 C 342.024 317.282,345.740 323.030,347.057 324.501 C 347.795 325.327,348.400 326.249,348.400 326.551 C 348.400 327.218,350.081 330.807,351.420 333.000 C 353.112 335.771,354.430 338.849,354.828 340.961 C 355.276 343.340,356.514 347.122,357.589 349.400 C 359.581 353.618,360.116 361.431,358.574 363.783 C 357.610 365.255,360.114 365.232,204.000 365.212 C 121.830 365.202,53.219 365.195,51.531 365.197 C 44.174 365.204,43.607 357.928,49.802 343.000 C 50.533 341.240,51.339 338.764,51.594 337.497 C 51.868 336.136,52.622 334.356,53.437 333.145 C 54.585 331.439,56.974 326.966,58.906 322.903 C 59.140 322.409,59.724 321.749,60.202 321.436 C 60.680 321.122,61.595 319.827,62.236 318.558 C 62.876 317.288,64.450 315.162,65.733 313.832 C 67.016 312.503,68.307 310.839,68.602 310.134 C 68.896 309.430,69.675 308.575,70.332 308.235 C 70.990 307.895,71.589 307.451,71.664 307.249 C 71.971 306.421,76.580 301.600,77.065 301.600 C 77.353 301.600,78.065 300.880,78.647 300.000 C 79.230 299.120,79.817 298.400,79.953 298.400 C 80.089 298.399,80.723 297.949,81.362 297.400 C 82.001 296.850,82.654 296.400,82.812 296.400 C 82.970 296.400,83.977 295.486,85.050 294.369 C 86.122 293.251,87.810 291.897,88.800 291.358 C 89.790 290.819,91.680 289.469,93.000 288.357 C 94.320 287.245,96.622 285.714,98.114 284.955 C 99.607 284.196,101.137 283.210,101.514 282.764 C 102.191 281.963,109.059 278.400,109.926 278.400 C 110.171 278.400,110.963 277.890,111.686 277.266 C 113.323 275.854,114.786 275.098,117.600 274.208 C 119.660 273.556,121.843 272.526,126.699 269.914 C 127.809 269.317,129.909 268.638,131.366 268.405 C 134.100 267.969,137.331 266.857,138.953 265.794 C 140.718 264.638,152.996 261.600,155.906 261.600 C 156.992 261.600,160.030 260.766,161.800 259.982 C 163.389 259.278,167.466 258.479,170.600 258.257 C 172.360 258.132,179.200 257.578,185.800 257.024 C 192.400 256.471,198.790 255.957,200.000 255.883 C 201.210 255.809,202.380 255.721,202.600 255.688 C 202.820 255.655,205.340 255.796,208.200 256.001 " stroke="none" fill="#ccd4d4" fill-rule="evenodd"></path></g></svg>